{"glyphs":{":":{"x_min":0,"x_max":243,"ha":243,"o":"m 124 352 q 131 352 142 333 q 149 321 167 309 q 187 295 187 287 q 187 279 168 268 q 151 256 143 243 l 136 232 q 131 224 122 224 q 114 224 101 242 q 89 259 75 268 q 58 278 58 288 q 58 296 74 305 q 90 314 104 334 q 115 352 124 352 z m 124 115 q 132 115 142 97 q 149 84 167 72 q 187 58 187 49 q 187 42 168 30 q 151 19 143 5 l 136 -5 q 131 -14 122 -14 q 114 -14 101 4 q 90 21 75 30 q 58 41 58 50 q 58 59 74 68 q 90 77 104 97 q 115 115 124 115 z"},"$":{"x_min":0,"x_max":491,"ha":491,"o":"m 253 640 l 253 398 q 438 354 438 201 q 438 120 387 63 q 336 7 253 -5 l 253 -101 l 253 -119 l 251 -130 q 248 -134 238 -134 q 221 -134 221 -117 l 221 -6 q 137 -1 84 31 q 38 59 38 81 q 38 89 40 101 q 44 123 45 132 q 47 154 57 154 q 65 154 73 133 q 93 83 133 54 q 172 25 221 25 l 221 327 q 209 330 203 332 q 150 348 127 361 q 104 375 85 399 q 55 441 55 493 q 55 563 98 610 q 142 656 221 670 l 221 726 q 221 739 236 739 q 253 739 253 727 l 253 670 q 323 670 377 623 q 400 603 400 591 q 400 573 390 551 q 381 529 373 529 q 365 528 360 543 q 327 634 253 640 z m 221 641 q 168 641 134 607 q 100 573 100 522 q 100 476 128 449 q 157 422 221 408 z m 253 28 q 315 36 351 74 q 387 112 387 169 q 387 226 359 257 q 331 288 253 316 z"},"?":{"x_min":0,"x_max":295,"ha":295,"o":"m 105 643 q 80 643 67 628 l 60 619 q 56 615 50 615 q 40 615 41 625 q 42 645 74 663 q 105 680 140 680 q 191 680 225 649 q 259 618 259 571 q 259 518 208 450 l 185 420 q 124 340 124 281 q 124 264 128 249 q 131 238 131 233 q 131 225 124 226 q 114 227 106 249 q 99 271 99 299 q 99 345 138 427 q 185 529 185 567 q 185 599 162 621 q 138 643 105 643 z m 119 115 q 126 115 137 96 q 144 84 162 72 q 181 58 181 49 q 181 42 163 30 q 146 19 137 5 l 130 -5 q 125 -14 116 -14 q 108 -14 96 4 q 84 21 70 30 q 53 41 53 50 q 53 59 69 68 q 85 77 98 97 q 109 115 119 115 z"},"<":{"x_min":0,"x_max":500,"ha":500,"o":"m 457 611 l 457 576 l 141 369 l 457 158 l 457 63 l 43 339 l 43 345 z"},"'":{"x_min":0,"x_max":161,"ha":161,"o":"m 68 425 l 44 586 q 40 616 40 632 q 40 680 83 680 q 121 680 121 629 q 121 613 117 585 l 93 425 q 91 410 81 410 q 70 410 68 425 z"},"=":{"x_min":0,"x_max":500,"ha":500,"o":"m 83 422 q 87 422 96 422 q 124 420 146 420 l 252 417 l 374 418 l 430 417 q 450 417 450 406 q 450 397 441 387 q 436 380 435 378 q 425 364 410 364 l 390 365 l 312 367 l 228 367 l 126 369 l 94 367 q 80 365 74 365 q 52 365 50 376 l 51 380 l 57 395 l 62 411 q 66 422 83 422 z m 83 303 q 87 303 96 302 q 124 300 146 300 l 252 297 l 374 298 l 430 297 q 450 297 450 286 q 450 277 441 267 q 436 260 435 258 q 425 244 410 244 l 390 245 l 312 248 l 228 248 l 126 249 l 94 248 q 80 246 74 246 q 52 246 50 257 l 51 260 l 57 275 l 62 291 q 66 303 83 303 z"},"a":{"x_min":0,"x_max":423,"ha":423,"o":"m 266 214 l 266 275 q 266 331 245 353 q 217 382 169 382 q 104 382 104 327 q 104 311 111 290 q 114 281 114 274 q 115 266 104 266 q 82 266 63 275 q 44 285 44 297 q 44 327 77 362 q 121 410 193 410 q 260 410 296 380 q 333 351 333 297 l 333 105 q 333 60 344 41 q 355 21 381 21 q 388 21 393 22 q 401 25 404 25 q 413 25 412 18 q 412 9 389 0 q 367 -9 345 -9 q 305 -9 273 41 q 202 -13 142 -13 q 96 -13 69 11 q 42 36 42 78 q 42 134 93 165 q 144 196 266 214 z m 266 195 q 190 188 148 161 q 107 133 107 90 q 107 57 127 37 q 146 17 180 17 q 221 17 249 44 q 266 61 266 98 z"},"L":{"x_min":0,"x_max":544,"ha":544,"o":"m 201 132 l 202 115 q 202 56 213 45 q 224 35 286 35 q 377 35 445 56 q 512 78 530 114 q 537 127 544 127 q 552 127 551 117 q 549 85 520 46 q 478 -7 383 -7 q 368 -7 347 -5 l 294 -1 q 248 2 196 2 q 136 2 96 -4 q 79 -6 68 -7 q 56 -7 56 2 q 56 10 69 14 q 103 24 115 44 q 126 63 126 110 l 126 133 l 126 569 q 126 634 74 645 l 52 649 q 40 652 40 659 q 40 670 57 670 q 68 670 87 668 q 121 666 162 666 q 207 666 244 668 q 262 669 265 669 q 276 669 276 662 q 276 651 262 647 l 245 644 q 201 633 201 556 z"},"3":{"x_min":0,"x_max":500,"ha":500,"o":"m 281 402 q 348 402 389 359 q 430 315 430 243 q 430 140 354 63 q 279 -13 178 -13 q 134 -13 87 7 q 40 28 40 46 q 40 56 49 56 q 54 56 79 39 q 119 11 170 11 q 247 11 300 70 q 354 128 354 211 q 354 277 316 316 q 279 354 215 354 q 205 354 200 353 q 188 352 184 352 q 173 351 173 362 q 173 367 180 371 l 193 377 q 247 404 282 448 q 316 491 316 531 q 316 573 288 600 q 260 626 216 626 q 190 626 160 613 q 130 600 110 580 q 100 570 96 569 q 85 569 86 580 q 87 596 125 628 q 187 680 252 680 q 308 680 347 647 q 386 614 386 567 q 386 485 281 402 z"},";":{"x_min":0,"x_max":243,"ha":243,"o":"m 121 352 q 128 352 139 333 q 146 321 165 309 q 184 295 184 287 q 184 279 166 268 q 148 256 140 243 l 133 232 q 128 224 119 224 q 111 224 98 242 q 86 259 72 268 q 55 278 55 288 q 55 296 71 305 q 87 314 101 334 q 112 352 121 352 z m 116 112 q 138 112 159 78 q 180 44 180 7 q 180 -51 136 -105 q 101 -150 77 -150 q 68 -150 68 -143 q 68 -138 76 -132 q 94 -120 108 -94 q 122 -68 122 -49 q 122 6 70 36 q 57 44 57 52 q 57 60 65 68 l 86 87 l 104 108 q 108 112 116 112 z"},"J":{"x_min":0,"x_max":308,"ha":308,"o":"m 127 40 l 127 535 q 127 593 116 615 q 105 638 74 645 l 44 651 q 30 654 30 664 q 30 675 46 675 q 56 674 81 671 q 106 668 164 668 q 213 668 226 670 q 250 673 253 673 q 263 673 263 664 q 263 655 249 651 q 222 645 212 630 q 202 615 202 579 l 202 538 l 202 518 l 202 88 l 202 65 l 195 0 q 178 -80 127 -134 q 75 -188 17 -188 q 0 -188 -12 -181 q -24 -173 -24 -163 q -24 -159 -22 -151 q -21 -147 -18 -133 q -11 -103 1 -103 q 7 -103 18 -116 q 38 -138 61 -138 q 90 -138 109 -101 q 128 -64 128 -9 z"},"V":{"x_min":0,"x_max":673,"ha":673,"o":"m 175 551 l 363 121 q 370 105 376 105 q 381 105 394 133 l 401 151 l 509 405 q 578 569 578 616 q 578 632 571 638 q 563 645 541 649 q 514 655 514 663 q 515 672 530 672 q 534 672 544 672 q 581 670 588 670 l 608 670 l 630 670 l 642 670 l 684 671 q 693 671 693 663 q 693 656 683 652 q 648 639 630 596 l 617 564 l 374 -5 q 364 -29 354 -29 q 344 -29 333 -4 l 85 569 q 68 608 54 624 q 40 640 15 644 q -10 649 -15 651 q -20 653 -20 659 q -20 669 -6 669 q -2 669 8 668 q 17 667 58 667 l 104 667 l 137 667 q 147 667 168 669 q 178 670 182 670 q 195 670 195 661 q 195 654 185 650 q 165 643 160 637 q 155 632 155 620 q 155 599 175 551 z"},"\"":{"x_min":0,"x_max":301,"ha":301,"o":"m 68 425 l 44 586 q 40 616 40 632 q 40 680 83 680 q 121 680 121 629 q 121 613 117 585 l 93 425 q 91 410 81 410 q 70 410 68 425 z m 208 425 l 185 586 q 180 615 180 632 q 180 680 223 680 q 261 680 261 629 q 261 614 257 585 l 233 425 q 231 410 221 410 q 210 410 208 425 z"},"7":{"x_min":0,"x_max":500,"ha":500,"o":"m 377 595 l 207 595 q 152 595 128 580 q 104 564 95 525 q 91 509 83 509 q 70 509 70 529 q 70 545 73 561 l 83 608 l 92 653 q 96 670 109 670 q 120 670 132 668 q 147 667 180 667 l 351 667 l 375 667 l 395 667 q 411 667 417 662 q 422 656 422 641 q 422 576 352 394 q 267 178 267 60 q 267 20 283 -12 q 288 -23 288 -28 q 288 -36 266 -44 q 244 -53 222 -53 q 203 -53 195 -33 q 187 -14 187 32 q 187 92 210 160 q 233 228 305 379 q 377 532 377 595 z"},"S":{"x_min":0,"x_max":501,"ha":501,"o":"m 255 680 q 307 680 343 665 l 377 650 q 381 648 386 648 q 392 648 397 653 l 404 659 q 406 661 410 661 q 422 662 422 637 q 422 629 428 588 l 436 538 q 438 521 438 518 q 438 502 428 502 q 420 502 413 526 q 395 579 341 613 q 287 647 221 647 q 168 647 133 616 q 97 585 97 539 q 97 498 120 468 q 140 442 164 431 q 188 419 280 388 q 461 329 461 194 q 461 103 395 45 q 328 -13 224 -13 q 187 -13 141 -2 q 96 8 75 22 q 66 28 63 35 q 61 42 55 69 q 54 73 42 113 q 30 157 30 176 q 30 190 40 190 q 48 189 55 166 q 73 105 129 64 q 186 23 252 23 q 320 23 366 63 q 413 103 413 159 q 413 213 370 250 q 348 270 243 305 q 135 341 90 386 q 44 430 44 501 q 44 580 103 630 q 162 680 255 680 z"},"}":{"x_min":0,"x_max":257,"ha":257,"o":"m 115 424 l 115 563 q 115 632 96 662 q 77 692 29 700 q 14 702 14 710 q 14 721 45 721 l 76 721 q 126 721 153 685 q 179 648 179 578 l 179 437 q 179 397 183 382 q 186 366 200 345 q 213 325 231 311 q 240 305 240 300 q 240 296 231 289 q 213 275 200 255 q 186 234 183 219 q 179 203 179 164 l 179 22 q 179 -48 153 -85 q 126 -121 76 -121 l 45 -121 q 14 -121 14 -109 q 15 -101 32 -98 q 80 -89 97 -61 q 115 -32 115 38 l 115 176 q 115 251 154 283 l 164 291 q 171 297 171 300 q 171 303 164 309 l 154 317 q 115 348 115 424 z"},"Z":{"x_min":0,"x_max":516,"ha":516,"o":"m 259 41 l 337 41 q 394 41 424 49 q 453 57 476 79 q 502 104 508 105 q 517 105 516 97 q 516 91 512 83 l 497 53 l 479 20 q 472 6 466 3 q 459 0 438 0 l 66 0 q 40 0 40 13 q 40 19 45 28 l 376 599 l 380 605 q 384 611 384 616 q 384 625 362 625 l 196 625 q 157 625 139 618 q 121 611 102 589 q 77 560 70 538 q 66 525 58 525 q 48 525 48 537 q 49 548 55 571 q 58 584 59 606 q 62 646 67 656 q 72 666 92 666 l 108 667 l 175 666 l 457 666 q 487 666 487 648 q 487 642 483 636 l 166 85 l 160 75 q 155 66 154 60 q 153 42 181 42 l 229 41 z"},"x":{"x_min":0,"x_max":436,"ha":436,"o":"m 228 240 l 284 309 l 297 324 q 310 340 310 353 q 310 373 277 379 q 262 382 261 390 q 261 399 274 399 q 276 399 300 397 q 315 396 348 396 q 377 396 390 397 q 412 399 418 399 q 429 399 429 391 q 429 383 415 380 q 374 370 330 317 l 245 217 l 355 77 l 367 62 q 387 38 399 30 q 411 21 435 16 q 446 14 447 5 q 447 -5 430 -5 q 422 -5 405 -3 q 375 0 347 0 q 327 0 311 -2 q 287 -5 277 -5 q 263 -6 263 4 q 263 11 272 14 q 295 20 295 33 q 295 42 289 51 l 279 63 l 202 164 l 145 95 l 132 80 q 116 62 116 44 q 116 19 152 15 q 167 14 167 5 q 167 -6 150 -6 q 145 -6 131 -4 q 112 -1 71 -1 q 45 -1 34 -2 q 7 -5 3 -5 q -6 -6 -6 4 q -6 10 2 13 q 36 25 61 47 q 86 68 131 124 l 183 187 l 78 323 q 44 367 2 378 q -10 381 -10 388 q -10 399 10 399 l 35 398 l 82 397 l 105 396 l 166 398 q 169 398 171 397 q 176 396 176 391 q 176 383 164 379 q 140 373 140 363 q 140 352 161 325 z"},")":{"x_min":0,"x_max":278,"ha":278,"o":"m 33 726 q 48 726 86 685 q 239 520 239 300 q 239 196 196 89 q 153 -19 82 -92 l 56 -119 q 48 -126 40 -126 q 21 -126 21 -121 q 22 -117 28 -110 q 54 -85 94 -13 q 161 107 161 260 q 161 433 72 622 q 40 691 26 708 q 21 715 21 720 q 20 726 33 726 z"},"&":{"x_min":0,"x_max":848,"ha":848,"o":"m 592 150 q 738 28 804 28 q 812 28 822 32 q 834 36 839 36 q 848 37 848 29 q 848 17 816 5 q 784 -7 750 -7 q 701 -7 661 12 q 621 30 545 89 q 437 -7 318 -7 q 196 -7 116 63 q 37 133 37 239 q 37 327 98 388 q 132 422 193 437 q 149 493 149 547 q 149 605 193 641 q 237 677 308 677 q 344 677 384 662 l 407 653 l 412 652 q 416 652 422 657 q 427 661 430 661 q 443 662 443 626 l 445 599 l 447 561 q 448 548 448 545 q 448 535 437 535 q 431 535 427 546 q 413 586 371 618 q 329 649 288 649 q 254 649 229 628 q 205 607 205 578 q 205 550 228 514 q 251 479 306 422 l 429 295 q 477 246 564 170 q 590 213 590 265 q 590 304 575 330 q 560 355 534 360 l 511 365 q 496 368 497 378 q 497 385 507 385 q 511 385 521 383 q 535 381 605 381 q 627 381 646 383 q 663 385 670 385 q 679 385 679 377 q 680 369 666 364 q 650 358 644 345 q 638 331 635 295 q 628 212 592 150 z m 515 112 q 499 126 495 130 l 448 170 q 408 204 344 270 q 279 336 242 381 q 211 417 190 417 q 158 417 125 378 q 92 338 92 279 q 92 208 149 142 q 227 53 347 53 q 447 53 515 112 z"},"_":{"x_min":0,"x_max":500,"ha":500,"o":"m 24 -88 l 477 -88 l 477 -128 l 24 -128 z"},"v":{"x_min":0,"x_max":417,"ha":417,"o":"m 228 71 l 310 245 q 334 298 334 336 q 334 370 288 378 q 274 380 274 388 q 274 398 287 398 q 293 398 305 396 q 315 396 341 396 q 391 396 408 397 q 421 398 426 398 q 438 398 437 390 q 437 383 417 375 q 396 368 379 331 l 220 -1 q 214 -14 204 -14 q 191 -14 186 0 l 44 321 q 24 365 -9 378 q -20 382 -20 388 q -20 398 -5 398 q -1 398 6 397 q 30 395 95 395 q 125 395 137 396 q 153 397 159 397 q 170 397 170 387 q 170 380 156 378 q 112 373 112 350 q 112 338 121 317 z"},"O":{"x_min":0,"x_max":784,"ha":784,"o":"m 395 680 q 548 680 646 585 q 744 491 744 343 q 744 187 645 87 q 546 -13 393 -13 q 235 -13 137 83 q 40 178 40 333 q 40 401 66 467 q 91 533 135 578 q 181 625 251 652 q 321 680 395 680 z m 363 648 q 250 648 183 572 q 117 495 117 366 q 117 218 202 116 q 287 15 411 15 q 524 15 598 97 q 672 180 672 307 q 672 453 583 551 q 495 648 363 648 z"},"(":{"x_min":0,"x_max":278,"ha":278,"o":"m 239 726 q 258 726 258 721 q 257 716 251 710 q 225 685 185 613 q 118 492 118 340 q 118 167 207 -22 q 240 -92 253 -108 q 259 -116 259 -121 q 259 -126 246 -126 q 231 -126 193 -85 q 40 80 40 300 q 40 396 77 495 q 113 593 179 670 q 226 726 239 726 z"},"C":{"x_min":0,"x_max":710,"ha":710,"o":"m 647 610 l 663 493 l 664 480 l 663 476 q 660 471 655 471 q 649 470 638 491 q 546 651 390 651 q 266 651 194 575 q 122 498 122 365 q 122 212 202 115 q 282 19 407 19 q 480 19 551 58 q 622 97 649 152 q 662 178 669 179 q 677 179 677 169 l 676 164 l 674 153 l 663 94 l 661 85 q 659 72 638 59 q 525 -13 390 -13 q 232 -13 136 80 q 40 173 40 326 q 40 478 140 579 q 239 680 390 680 q 493 680 579 633 l 599 623 l 606 620 l 615 617 q 617 617 622 621 q 633 628 637 628 q 645 628 647 610 z"},"W":{"x_min":0,"x_max":967,"ha":967,"o":"m 538 376 l 636 145 q 652 106 660 106 q 666 106 676 128 q 679 136 688 155 q 752 297 808 442 q 863 587 863 613 q 863 636 822 645 q 799 650 799 661 q 799 671 813 671 q 815 671 822 670 q 842 669 880 669 q 925 669 947 672 q 963 674 970 674 q 980 674 980 664 q 980 655 966 649 q 946 641 937 620 l 910 562 q 893 525 858 443 q 822 357 803 314 l 744 182 l 705 89 l 682 36 l 671 11 l 664 -3 q 651 -30 638 -30 q 627 -30 617 -7 l 496 276 l 374 -15 q 365 -36 356 -36 q 343 -35 328 2 l 126 485 l 113 517 q 87 583 67 609 q 47 635 17 642 l -3 646 q -13 649 -13 659 q -13 670 1 670 q 6 670 14 669 q 33 667 62 667 l 123 667 l 164 667 q 188 669 194 669 q 207 669 207 657 q 207 648 196 645 q 166 636 166 616 q 166 592 201 511 q 218 474 254 384 q 289 297 304 264 l 352 159 q 359 141 362 135 l 368 125 q 374 114 376 114 q 380 114 387 130 l 389 136 l 473 332 q 463 356 461 361 l 417 463 l 377 558 q 354 609 342 624 q 330 638 303 641 q 263 646 264 659 q 265 669 285 669 l 304 668 l 398 666 q 419 666 447 668 q 463 670 468 670 q 485 670 485 658 q 485 650 469 644 q 445 634 445 613 q 445 594 463 553 l 515 431 q 521 446 524 453 q 580 578 580 616 q 580 638 548 644 q 524 648 524 660 q 524 670 542 670 q 544 670 561 669 q 582 667 611 667 q 642 667 659 670 q 673 672 679 672 q 693 672 693 660 q 693 652 676 647 q 658 641 649 629 q 641 618 618 565 z"},"A":{"x_min":0,"x_max":667,"ha":667,"o":"m 401 255 l 224 255 q 188 255 179 250 q 170 244 156 210 l 124 139 q 103 89 103 65 q 103 42 114 32 q 125 22 159 15 q 174 12 174 3 q 175 -5 161 -5 q 155 -5 144 -5 l 97 -2 q 74 -1 43 -1 q 29 -1 21 -2 q -4 -4 -6 -4 q -20 -4 -20 5 q -20 13 -11 15 l 7 21 q 17 23 33 44 q 50 65 61 87 l 75 120 l 326 677 q 332 691 340 691 q 348 691 353 677 l 563 140 l 574 114 q 597 55 612 40 q 627 26 673 18 q 688 15 688 5 q 688 -3 674 -3 q 670 -3 656 -2 q 630 0 565 0 q 498 0 480 -2 q 470 -4 465 -4 q 453 -4 453 6 q 453 14 465 16 l 480 20 q 504 24 504 53 q 504 79 475 156 l 450 220 q 440 247 434 251 q 428 255 401 255 z m 407 333 l 330 527 l 326 537 q 320 553 313 553 q 310 554 306 544 l 210 333 q 204 319 204 314 q 204 302 227 302 l 240 301 l 387 301 q 412 301 412 313 q 412 317 409 325 z"},"f":{"x_min":0,"x_max":294,"ha":294,"o":"m 170 395 l 250 395 q 267 395 271 399 l 278 407 q 281 410 286 410 q 293 410 293 403 q 292 400 290 392 l 282 372 q 275 354 263 354 l 171 354 l 171 82 q 171 43 181 31 q 192 18 226 15 q 244 14 244 5 q 244 -3 230 -3 q 225 -3 201 -1 q 186 0 171 0 q 107 0 89 -3 q 77 -4 71 -4 q 58 -4 58 5 q 58 12 67 15 l 76 18 q 92 22 98 36 q 104 49 104 79 l 104 354 l 47 354 q 32 354 32 360 q 33 379 39 387 q 45 395 58 395 l 104 395 q 112 514 152 582 q 186 637 231 670 q 276 702 321 702 q 363 702 363 684 q 363 679 362 673 l 356 655 q 348 622 338 622 q 333 622 330 630 q 320 654 278 654 q 169 654 169 447 z"},"Q":{"x_min":0,"x_max":771,"ha":771,"o":"m 186 43 q 40 155 40 329 q 40 467 120 564 q 214 680 386 680 q 539 680 635 583 q 730 487 730 334 q 730 235 686 154 q 642 72 564 28 q 515 1 449 -12 q 498 -37 518 -49 l 563 -79 l 600 -103 q 643 -130 670 -130 q 711 -130 741 -113 q 750 -108 755 -108 q 763 -107 764 -115 q 765 -133 718 -153 q 670 -173 627 -173 q 568 -173 489 -126 q 417 -85 405 -78 l 323 -35 q 250 4 215 4 q 186 4 161 -20 q 136 -44 130 -78 q 127 -96 119 -96 q 106 -96 107 -80 q 109 -42 132 -6 q 155 31 186 43 z m 357 651 q 251 651 185 574 q 118 497 118 373 q 118 193 231 90 q 315 13 420 13 q 527 13 594 89 q 660 165 660 287 q 660 439 572 545 q 483 651 357 651 z"},"w":{"x_min":0,"x_max":633,"ha":633,"o":"m 211 72 l 308 269 l 298 293 q 281 340 269 355 q 258 370 236 376 q 224 379 224 386 q 224 397 239 397 q 246 397 260 396 q 277 394 312 394 q 341 394 369 396 q 381 397 384 397 q 399 397 399 388 q 399 379 389 376 l 374 373 q 354 369 354 344 q 354 333 365 305 l 452 77 l 503 196 l 523 241 q 547 297 547 333 q 547 353 535 365 q 523 376 504 376 q 489 376 489 387 q 489 397 501 397 q 509 397 521 396 q 534 395 569 395 q 605 395 618 396 q 630 396 637 396 q 647 396 647 388 q 647 381 636 377 q 619 372 610 363 q 601 353 590 330 l 452 5 q 444 -13 429 -13 q 415 -13 409 2 l 322 231 l 210 -1 q 204 -14 189 -14 q 177 -14 173 -3 l 57 296 l 48 319 q 33 359 -1 373 q -13 378 -13 385 q -13 395 3 395 q 7 395 20 394 q 35 393 73 393 l 125 394 l 146 394 l 157 392 q 161 390 161 384 q 160 377 151 375 l 138 372 q 116 366 116 342 q 116 332 130 293 z"},"-":{"x_min":0,"x_max":192,"ha":192,"o":"m 188 274 q 193 274 193 248 q 193 219 189 213 q 186 208 162 200 q 128 189 105 181 q 51 161 35 157 q 21 153 16 150 q 10 146 7 146 q 0 145 0 162 q 0 197 6 205 q 11 213 43 223 q 55 227 95 241 q 111 247 148 259 q 173 268 182 272 z"},"E":{"x_min":0,"x_max":584,"ha":584,"o":"m 201 590 l 201 394 q 201 371 205 366 q 209 362 230 362 l 306 362 q 357 362 387 368 q 413 373 421 382 q 429 391 435 423 q 438 435 447 435 q 457 434 457 421 q 457 418 456 411 q 452 363 452 324 q 452 294 455 265 q 456 255 456 251 q 456 239 447 239 q 437 239 435 250 l 432 263 q 426 296 408 308 q 391 319 349 319 l 241 319 q 217 319 209 314 q 201 310 201 295 l 201 279 l 201 99 q 201 58 216 47 q 231 37 292 37 q 483 37 538 124 q 543 132 549 132 q 558 133 558 120 q 558 88 522 44 q 479 -9 414 -9 q 399 -9 375 -7 q 282 2 221 2 q 136 2 101 -4 q 82 -7 75 -7 q 60 -7 60 3 q 60 12 72 15 l 91 21 q 126 30 126 89 l 126 121 l 126 533 q 126 603 111 627 q 96 651 51 651 q 37 651 37 661 q 37 674 59 674 q 71 674 92 672 q 162 664 260 664 q 319 664 365 666 l 435 669 q 463 670 470 671 q 483 673 489 673 q 505 673 505 659 q 505 655 504 648 q 502 641 500 609 l 498 580 q 496 552 493 545 q 491 538 482 537 q 473 537 473 552 l 473 564 q 473 580 467 594 q 458 616 430 624 q 401 631 326 631 l 249 631 q 219 631 210 623 q 201 616 201 590 z"},"s":{"x_min":0,"x_max":338,"ha":338,"o":"m 171 410 q 210 410 238 399 l 259 392 q 272 387 272 377 l 272 369 q 272 362 273 355 l 275 336 q 277 326 277 318 q 277 299 266 298 q 260 298 255 311 q 229 385 155 385 q 125 385 107 369 q 88 352 88 327 q 88 300 108 283 q 128 267 189 243 q 250 219 274 192 q 298 166 298 121 q 298 65 257 26 q 216 -13 160 -13 q 119 -13 72 10 q 61 15 58 15 l 45 17 q 34 18 33 29 l 32 50 l 31 112 l 32 127 q 34 140 42 141 q 51 141 54 126 q 64 72 94 42 q 124 12 165 12 q 201 12 223 33 q 246 54 246 86 q 246 136 191 161 l 148 180 q 90 205 65 232 q 41 259 41 298 q 41 345 79 377 q 116 410 171 410 z"},">":{"x_min":0,"x_max":500,"ha":500,"o":"m 43 63 l 43 99 l 360 305 l 43 517 l 43 611 l 457 335 l 457 329 z"},"l":{"x_min":0,"x_max":254,"ha":254,"o":"m 160 686 l 160 113 q 160 73 169 51 q 180 27 230 19 q 244 16 244 8 q 245 -3 234 -3 q 229 -3 221 -1 q 214 0 199 0 l 157 0 l 131 0 q 85 0 74 -1 q 59 -4 56 -4 q 43 -4 42 6 q 42 14 56 18 q 78 24 86 35 q 93 45 93 69 l 93 610 q 93 655 62 655 l 38 654 q 33 654 29 655 q 23 658 23 663 q 23 670 36 673 q 53 677 66 683 l 96 695 q 130 708 144 718 q 149 722 153 722 q 161 723 161 701 z"},"8":{"x_min":0,"x_max":500,"ha":500,"o":"m 315 378 q 453 315 453 192 q 453 103 395 45 q 337 -13 250 -13 q 162 -13 104 41 q 47 95 47 179 q 47 238 75 280 q 103 321 169 361 q 74 415 74 507 q 74 580 126 630 q 179 680 256 680 q 328 680 377 636 q 426 593 426 529 q 426 479 397 440 q 369 401 315 378 z m 241 650 q 192 650 159 618 q 126 586 126 538 q 126 466 191 429 q 237 402 277 402 q 320 402 348 434 q 376 465 376 514 q 376 575 339 613 q 301 650 241 650 z m 202 345 q 96 299 96 195 q 96 122 144 68 q 192 15 259 15 q 319 15 358 55 q 396 94 396 156 q 396 214 353 259 q 320 293 226 334 q 218 338 202 345 z"},"\\":{"x_min":0,"x_max":495,"ha":495,"o":"m 443 -115 l 91 666 l 83 683 q 78 694 78 698 q 78 708 104 708 q 115 708 120 697 l 468 -75 q 478 -96 486 -114 q 488 -119 488 -124 q 488 -132 466 -132 q 451 -132 443 -115 z"},"e":{"x_min":0,"x_max":419,"ha":419,"o":"m 104 243 l 103 232 q 103 148 149 92 q 195 35 263 35 q 316 35 378 83 q 382 85 386 86 q 393 86 393 78 q 393 63 358 37 q 295 -13 224 -13 q 145 -13 91 47 q 37 108 37 197 q 37 282 92 346 q 148 410 223 410 q 304 410 353 342 q 365 325 377 297 q 389 269 389 257 q 389 241 357 241 l 321 242 l 288 243 z m 105 269 l 271 269 q 310 269 310 285 q 310 323 277 355 q 244 388 205 388 q 165 388 138 356 q 112 324 105 269 z"},"b":{"x_min":0,"x_max":503,"ha":503,"o":"m 147 347 q 192 383 224 396 q 256 410 294 410 q 370 410 418 355 q 466 301 466 215 q 466 119 408 53 q 350 -14 266 -14 q 195 -14 134 34 q 126 41 122 40 q 115 40 102 13 q 88 -13 82 -13 q 73 -13 73 0 q 73 4 76 20 q 80 37 80 74 l 80 561 q 80 617 72 633 q 67 641 58 648 q 48 655 43 655 l 12 652 l 8 653 q 4 655 4 660 q 4 669 20 672 q 78 686 128 715 q 135 719 139 719 q 147 719 147 704 z m 147 290 l 147 137 l 146 118 l 153 85 q 167 54 204 32 q 240 10 279 10 q 341 10 378 55 q 416 101 416 176 q 416 254 366 314 q 317 375 253 375 q 203 375 164 337 q 147 321 147 290 z"},"%":{"x_min":0,"x_max":840,"ha":840,"o":"m 204 673 q 274 673 326 620 q 377 567 377 495 q 377 418 329 368 q 282 317 210 317 q 134 317 85 367 q 37 417 37 494 q 37 567 86 620 q 136 673 204 673 z m 197 648 q 158 648 132 610 q 106 572 106 514 q 106 442 140 392 q 174 341 222 341 q 261 341 284 377 q 308 414 308 474 q 308 547 276 597 q 243 648 197 648 z m 645 689 q 657 689 657 682 q 657 671 615 609 q 591 573 521 457 q 485 398 432 313 l 342 170 q 288 83 261 39 l 233 -7 q 222 -26 219 -29 q 215 -31 203 -31 q 182 -31 183 -24 q 183 -21 186 -17 q 189 -12 197 1 q 202 9 229 50 q 246 78 314 187 l 398 323 q 473 444 507 498 q 577 609 602 653 q 616 678 623 683 q 629 689 645 689 z m 631 350 q 701 350 752 297 q 804 244 804 171 q 804 95 756 45 q 708 -6 637 -6 q 562 -6 512 44 q 463 94 463 171 q 463 244 513 297 q 562 350 631 350 z m 624 325 q 584 325 559 287 q 533 249 533 191 q 533 120 567 69 q 601 18 649 18 q 688 18 711 54 q 735 91 735 151 q 735 224 702 274 q 670 325 624 325 z"},"m":{"x_min":0,"x_max":786,"ha":786,"o":"m 170 344 q 225 410 299 410 q 342 410 369 393 q 396 376 420 336 q 477 410 555 410 q 621 410 658 367 q 695 325 695 250 l 695 92 q 695 55 710 37 q 725 19 758 15 q 770 14 770 5 q 770 -3 758 -3 q 753 -3 743 -2 q 728 0 694 0 q 629 0 613 -1 q 603 -3 599 -3 q 586 -3 585 6 q 585 12 594 15 q 615 23 622 31 q 628 39 628 57 l 629 73 l 629 233 q 629 299 601 335 q 573 372 522 372 q 489 372 459 351 q 429 331 429 308 q 429 303 430 295 q 433 278 433 262 l 433 85 q 433 48 446 34 q 458 19 493 16 q 509 15 509 5 q 509 -3 495 -3 q 490 -3 479 -2 q 452 0 433 0 q 366 0 349 -2 q 339 -3 333 -3 q 322 -3 322 5 q 322 10 331 13 q 356 22 361 31 q 366 41 366 79 l 366 260 q 366 312 340 341 q 313 371 266 371 q 223 371 197 348 q 170 326 170 290 l 170 80 q 170 48 184 34 q 198 19 231 15 q 246 14 246 4 q 246 -4 234 -4 q 228 -3 211 -1 q 201 0 170 0 l 138 0 l 104 0 q 98 0 87 -1 q 75 -3 69 -3 q 57 -4 57 5 q 57 12 68 16 q 90 22 97 33 q 103 44 103 75 l 103 294 q 103 329 95 342 q 88 355 67 355 l 46 355 q 41 355 38 358 q 35 359 35 363 q 35 369 46 373 q 97 386 140 410 q 159 421 163 421 q 170 421 170 403 z"},"#":{"x_min":0,"x_max":500,"ha":500,"o":"m 197 451 l 331 451 l 349 596 l 350 607 q 352 620 368 620 q 384 620 383 610 l 382 599 l 364 451 l 451 451 q 462 451 462 440 q 462 400 445 399 l 357 399 l 341 268 l 429 268 q 439 268 439 257 q 439 217 423 216 l 334 216 l 318 80 q 317 72 316 64 q 315 47 299 47 q 283 47 283 58 q 283 62 286 81 l 302 216 l 168 216 l 151 80 q 150 72 150 64 q 148 47 132 47 q 117 47 117 58 q 117 62 119 81 l 136 216 l 68 216 l 53 215 l 40 219 q 38 221 38 229 q 38 268 59 268 l 142 268 l 158 399 l 91 399 l 75 398 l 62 402 q 60 404 60 413 q 60 451 81 451 l 165 451 l 182 596 l 184 607 q 185 620 201 620 q 217 620 216 610 l 215 599 z m 190 399 l 174 268 l 309 268 l 325 399 z"},",":{"x_min":0,"x_max":243,"ha":243,"o":"m 116 112 q 138 112 159 78 q 180 44 180 8 q 180 -51 137 -105 q 101 -150 77 -150 q 68 -150 68 -143 q 68 -138 76 -132 q 94 -120 108 -94 q 123 -68 123 -48 q 123 6 70 36 q 57 44 57 52 q 57 60 65 68 l 86 87 l 104 108 q 108 112 116 112 z"},"n":{"x_min":0,"x_max":550,"ha":550,"o":"m 170 332 q 235 410 306 410 q 384 410 429 346 q 460 302 460 212 l 460 95 l 460 81 l 461 57 q 467 25 502 20 l 523 17 q 536 15 537 7 q 537 -4 521 -4 q 515 -4 501 -2 q 485 0 442 0 l 394 -2 l 375 -2 l 361 -3 l 354 -1 q 351 0 351 6 q 351 13 359 15 l 374 19 q 394 24 394 54 l 394 223 q 394 291 362 327 q 331 364 273 364 q 233 364 201 340 q 170 316 170 286 l 170 100 l 170 85 l 171 61 q 173 20 239 16 q 255 14 255 5 q 255 -3 244 -3 q 235 -3 219 -1 q 209 0 173 0 q 95 0 80 -2 q 65 -3 61 -3 q 51 -3 52 4 q 52 10 61 14 q 86 22 94 35 q 103 48 103 76 l 103 297 q 103 332 95 344 q 86 356 63 356 l 42 356 q 38 356 35 358 q 30 360 30 365 q 30 372 43 374 q 76 380 106 394 l 132 407 q 147 414 151 416 q 158 420 163 420 q 171 420 170 406 q 170 398 170 387 z"},"h":{"x_min":0,"x_max":542,"ha":542,"o":"m 160 332 q 223 410 297 410 q 366 410 409 362 q 452 315 452 238 l 452 83 q 452 46 464 33 q 476 19 516 13 q 529 11 529 2 q 529 -7 516 -7 q 510 -7 492 -5 q 456 -3 430 -3 q 387 -3 366 -6 q 354 -7 351 -7 q 338 -7 337 1 q 337 7 347 11 q 372 21 378 28 q 384 36 384 58 l 384 73 l 384 235 q 384 297 353 334 q 321 370 268 370 q 227 370 193 344 q 160 318 160 286 l 160 97 q 160 47 171 33 q 183 18 226 12 q 243 10 243 0 q 243 -8 232 -8 q 227 -8 205 -6 q 188 -4 131 -4 q 111 -4 75 -7 q 59 -8 52 -8 q 41 -8 40 0 q 40 8 51 12 q 80 21 87 32 q 93 43 93 85 l 93 594 q 93 654 61 652 l 36 650 q 32 650 29 652 q 25 654 25 658 q 25 665 37 668 q 67 675 105 693 l 143 711 q 149 714 153 714 q 162 714 162 704 q 162 701 161 692 q 160 684 160 667 z"},"z":{"x_min":0,"x_max":338,"ha":338,"o":"m 246 331 l 124 331 l 91 324 q 70 315 62 293 q 56 277 49 277 q 40 277 40 288 q 40 298 44 312 q 48 328 52 351 q 56 383 62 391 q 68 398 87 398 l 142 397 l 186 396 l 271 396 q 284 396 288 397 l 295 397 q 313 397 312 384 q 312 379 307 371 l 104 62 l 217 62 q 276 62 293 104 q 304 130 313 130 q 321 130 321 121 q 320 107 313 90 q 304 68 299 49 l 291 20 q 286 0 265 0 l 57 0 q 37 0 37 10 q 37 13 42 21 l 47 31 z"},"B":{"x_min":0,"x_max":604,"ha":604,"o":"m 126 147 l 126 524 q 126 589 107 619 q 88 650 48 650 q 28 650 28 661 q 28 672 48 672 q 52 672 73 671 q 87 670 113 670 q 149 670 169 671 l 224 674 q 250 676 272 676 q 380 676 442 633 q 504 590 504 515 q 504 437 439 394 l 418 379 q 411 375 412 372 q 412 367 437 362 q 491 350 525 303 q 560 257 560 197 q 560 107 494 49 q 428 -10 326 -10 l 288 -8 l 243 -6 l 203 -4 q 164 -1 141 -1 q 118 -1 102 -3 q 79 -6 69 -6 q 55 -6 55 4 q 55 13 70 15 q 111 21 119 61 q 126 96 126 147 z m 234 376 l 315 376 q 438 376 438 487 q 438 555 385 601 q 333 647 256 647 q 223 647 212 638 q 201 628 201 598 l 201 402 q 201 385 207 381 q 212 376 234 376 z m 228 342 q 210 342 206 339 q 201 335 201 323 l 201 98 l 200 75 l 203 56 q 210 35 239 26 q 267 17 327 17 q 403 17 446 57 q 488 98 488 170 q 488 244 442 293 q 395 342 324 342 z"},"K":{"x_min":0,"x_max":650,"ha":650,"o":"m 201 292 l 201 114 q 201 58 216 40 q 231 21 286 13 q 300 10 300 2 q 301 -7 289 -7 q 282 -6 262 -5 q 246 -3 204 -3 l 165 -3 l 130 -4 q 110 -4 104 -4 q 78 -7 74 -7 q 58 -7 58 5 q 58 13 72 14 q 103 17 115 43 q 126 69 126 130 l 126 545 q 126 597 115 618 q 104 639 72 646 l 48 650 q 36 653 36 661 q 36 671 49 671 q 56 671 66 669 q 91 667 145 667 l 163 667 l 199 668 q 214 668 225 668 q 244 670 248 670 q 260 671 260 661 q 260 654 248 649 q 217 636 209 619 q 201 603 201 553 l 201 362 q 201 352 206 352 l 213 357 l 221 363 l 431 551 q 479 594 479 620 q 479 643 444 649 q 421 652 421 662 q 421 672 437 672 q 441 672 450 671 q 470 669 496 669 l 541 667 l 577 668 q 608 668 618 669 q 629 671 633 671 q 646 671 647 662 q 647 654 624 648 q 580 637 455 525 l 288 374 q 277 364 276 358 q 276 351 288 338 l 543 72 q 583 30 631 20 l 653 16 q 664 13 664 6 q 664 -6 649 -5 q 645 -5 637 -4 q 628 -3 595 -3 q 566 -3 553 -4 q 538 -5 530 -5 q 514 -5 501 8 l 493 18 l 231 288 l 222 298 q 216 304 210 304 q 201 304 201 292 z"},"R":{"x_min":0,"x_max":656,"ha":656,"o":"m 379 335 l 514 136 l 530 112 q 592 21 645 17 l 661 16 q 669 16 669 9 q 668 2 647 -4 q 626 -10 599 -10 q 555 -10 520 14 q 485 39 449 93 l 328 279 l 321 290 q 309 310 283 310 l 218 310 l 207 308 q 201 304 201 292 l 201 140 l 202 120 q 202 78 206 63 q 210 47 226 35 q 247 19 291 14 q 308 12 309 3 q 310 -7 292 -7 q 286 -7 264 -5 q 244 -3 202 -3 l 155 -2 l 129 -3 q 113 -3 89 -5 q 70 -7 63 -7 q 51 -7 51 3 q 51 10 63 13 q 102 20 114 48 q 126 76 126 159 l 126 509 l 125 560 q 125 636 72 645 l 49 648 q 34 651 34 660 q 34 670 50 670 q 54 670 84 668 q 102 667 128 667 q 150 667 205 670 q 244 673 273 673 q 386 673 443 631 q 500 588 500 505 q 500 395 379 335 z m 236 346 l 291 346 q 355 346 392 381 q 428 416 428 477 q 428 548 378 594 q 329 639 251 639 q 223 639 212 630 q 201 620 201 595 l 201 579 l 201 381 q 201 358 207 352 q 213 346 236 346 z"},"T":{"x_min":0,"x_max":608,"ha":608,"o":"m 511 615 l 374 615 q 353 615 347 609 q 341 604 341 581 l 341 102 l 342 83 q 344 26 406 15 q 423 12 423 4 q 423 -7 409 -7 q 403 -7 385 -4 q 376 -2 341 -2 l 306 -2 l 268 -2 q 247 -2 233 -4 q 205 -7 200 -7 q 186 -7 186 4 q 186 12 202 14 q 239 19 252 34 q 266 50 266 91 l 266 575 l 265 588 q 265 605 260 610 q 255 615 236 615 l 107 615 q 67 615 50 599 q 32 583 22 540 q 18 521 9 521 q 0 521 0 534 q 0 544 6 572 q 13 607 13 630 q 13 652 18 659 q 23 667 40 667 l 565 667 q 592 667 598 661 q 604 655 604 626 q 604 597 606 584 q 608 567 609 560 q 609 545 599 544 q 590 544 587 560 q 581 594 566 605 q 552 615 511 615 z"},"P":{"x_min":0,"x_max":529,"ha":529,"o":"m 202 589 l 202 182 l 201 134 l 203 93 q 208 34 247 24 q 273 17 287 17 q 302 17 302 8 q 303 -4 285 -4 q 277 -4 252 -2 q 237 -1 202 -1 l 167 0 l 129 -1 q 100 -1 85 -3 q 66 -5 58 -5 q 45 -5 45 4 q 45 14 61 16 q 99 22 113 59 q 127 96 127 193 l 127 489 q 127 592 115 619 q 103 646 54 651 q 41 652 41 661 q 42 672 60 672 q 69 672 85 670 q 116 666 136 666 q 167 666 227 671 q 257 673 277 673 q 379 673 443 624 q 506 575 506 496 q 506 400 428 345 q 370 304 304 304 q 273 304 248 311 q 222 318 223 326 q 224 332 232 332 q 236 332 242 330 q 253 327 278 327 q 349 327 391 365 q 433 404 433 468 q 433 542 377 590 q 322 638 236 638 q 217 638 209 631 q 202 624 202 603 z"},"|":{"x_min":0,"x_max":500,"ha":500,"o":"m 225 667 l 275 667 l 275 -167 l 225 -167 z"},"t":{"x_min":0,"x_max":302,"ha":302,"o":"m 151 351 l 151 105 q 151 57 165 43 q 185 22 222 22 q 251 22 272 33 l 297 45 l 300 46 q 306 46 306 41 q 306 24 268 6 q 229 -13 196 -13 q 83 -13 83 104 l 83 351 l 40 351 q 27 351 27 358 q 27 365 40 375 q 97 424 127 472 q 141 494 146 494 q 153 494 153 481 l 151 396 l 255 396 q 276 396 288 404 q 295 410 299 410 q 304 411 304 405 q 304 402 299 393 l 288 365 q 283 351 267 351 z"},"M":{"x_min":0,"x_max":858,"ha":858,"o":"m 647 492 q 605 419 592 391 l 548 298 l 499 195 q 495 187 458 104 q 442 69 431 47 q 425 34 422 29 q 413 6 401 6 q 390 6 379 30 q 377 34 365 57 l 355 77 l 172 474 l 161 232 q 160 202 160 113 q 160 27 220 18 q 250 13 250 3 q 250 -8 236 -8 q 227 -8 218 -7 q 163 -2 133 -2 q 98 -2 65 -7 q 55 -8 50 -8 q 35 -8 35 2 q 35 11 47 13 q 83 21 97 46 q 111 71 114 131 l 121 273 q 128 427 128 467 q 128 554 105 596 q 82 638 28 647 q 14 650 14 660 q 14 670 26 670 q 30 670 42 669 q 49 668 75 668 q 115 668 126 669 q 137 671 144 671 q 165 671 179 640 l 185 629 l 388 190 l 413 140 q 418 127 421 127 q 424 127 428 136 l 434 149 l 438 159 l 668 650 q 675 666 679 670 q 683 673 692 673 q 696 673 713 671 q 720 671 729 671 q 760 671 779 673 q 788 673 793 674 q 803 674 803 664 q 803 655 793 652 l 772 647 q 747 641 737 616 q 727 592 727 536 l 730 418 l 739 153 l 742 91 q 742 54 755 38 q 769 22 805 17 q 831 13 831 3 q 831 -6 813 -6 q 808 -6 801 -6 l 763 -2 q 744 0 722 0 q 707 0 674 -2 q 623 -4 615 -4 q 601 -4 601 4 q 601 12 613 16 q 642 23 652 41 q 662 59 662 103 l 660 182 z"},"g":{"x_min":0,"x_max":419,"ha":419,"o":"m 90 -15 l 90 -11 q 57 14 57 44 q 57 101 114 141 q 49 180 49 262 q 49 325 92 367 q 135 410 199 410 q 257 410 304 380 q 320 370 328 370 q 345 370 367 382 q 389 395 394 407 l 400 425 q 401 431 408 431 q 416 432 416 419 q 416 410 408 382 q 401 354 395 342 q 387 326 366 320 q 357 317 357 312 q 357 308 358 302 q 363 287 363 261 q 363 205 317 164 q 272 122 211 122 q 186 122 153 128 q 144 130 138 130 q 123 130 108 113 q 94 96 94 77 q 94 52 121 41 q 148 30 212 30 q 309 30 348 10 q 388 -10 388 -59 q 388 -115 332 -154 q 276 -193 195 -193 q 117 -193 69 -166 q 20 -139 20 -95 q 20 -39 90 -15 z m 201 394 q 164 394 138 360 q 113 327 113 280 q 113 219 140 180 q 168 141 210 141 q 250 141 275 173 q 300 204 300 255 q 300 315 272 354 q 244 394 201 394 z m 111 -22 q 66 -42 66 -89 q 66 -128 98 -151 q 131 -173 188 -173 q 254 -173 298 -147 q 343 -122 343 -83 q 343 -38 274 -38 q 265 -38 222 -35 l 170 -31 q 134 -29 111 -22 z"},"j":{"x_min":0,"x_max":244,"ha":244,"o":"m 99 -39 l 100 284 q 100 324 91 338 q 81 352 54 352 l 40 352 q 27 352 26 360 q 26 364 30 367 q 35 369 41 370 q 98 382 150 416 q 156 419 161 420 q 168 420 168 412 l 167 395 l 167 352 l 167 327 l 166 31 q 166 -68 130 -130 q 94 -192 36 -192 q 18 -192 11 -182 q 4 -172 4 -146 q 4 -110 22 -110 q 34 -110 52 -134 q 66 -151 75 -151 q 92 -151 95 -117 l 98 -86 q 99 -77 99 -65 z m 133 611 q 145 611 157 591 l 169 573 q 174 566 174 561 q 174 549 157 529 q 140 509 130 509 q 121 509 104 529 q 88 548 88 560 q 88 571 106 591 q 124 611 133 611 z"},"i":{"x_min":0,"x_max":264,"ha":264,"o":"m 140 611 q 152 611 164 591 l 176 573 q 181 566 181 561 q 181 549 164 529 q 147 509 137 509 q 127 509 111 529 q 95 548 95 560 q 95 571 113 591 q 130 611 140 611 z m 170 80 q 170 45 178 34 q 186 22 210 19 l 232 16 q 250 14 250 3 q 249 -5 236 -5 q 228 -5 205 -3 q 191 -2 170 -2 l 139 -1 l 104 -3 q 94 -4 88 -5 q 76 -6 71 -6 q 58 -6 58 2 q 58 10 66 13 l 76 16 q 91 21 97 34 q 104 47 104 77 l 104 290 q 104 330 96 342 q 88 354 62 354 q 43 354 44 362 q 44 369 69 377 q 96 386 138 408 l 164 420 q 170 420 170 409 z"},"y":{"x_min":0,"x_max":391,"ha":391,"o":"m 228 69 l 301 271 q 312 304 312 329 q 312 352 302 363 q 291 373 260 380 q 249 383 249 391 q 249 399 258 399 q 265 398 278 397 q 289 396 322 396 q 358 396 373 397 q 390 398 395 398 q 405 398 405 390 q 405 384 395 379 q 376 372 368 363 q 360 354 351 330 l 178 -158 l 173 -173 q 169 -186 164 -188 q 159 -190 130 -190 q 97 -190 97 -183 q 97 -179 103 -174 q 136 -140 162 -93 q 188 -46 188 -18 q 188 -3 169 41 l 46 325 q 34 353 25 364 q 15 375 -2 379 q -13 382 -13 388 q -13 399 1 399 q 12 399 27 397 q 39 396 77 396 q 123 396 141 397 q 153 398 159 398 q 172 399 172 389 q 172 380 146 376 q 116 372 116 352 q 116 334 132 297 z"},"@":{"x_min":0,"x_max":744,"ha":744,"o":"m 456 238 q 375 143 295 143 q 263 143 244 165 q 225 188 225 226 q 225 303 283 392 q 359 507 452 507 q 473 507 501 499 q 511 496 518 496 q 527 496 541 510 l 549 519 q 557 527 562 527 q 569 527 569 519 q 568 515 567 509 l 562 489 q 512 314 512 230 q 512 179 542 179 q 592 179 633 248 q 675 316 675 398 q 675 509 604 578 q 533 647 419 647 q 290 647 200 548 q 110 449 110 306 q 110 174 187 97 q 265 20 397 20 q 510 20 609 64 l 622 33 q 518 -13 395 -13 q 209 -13 111 104 q 35 193 35 313 q 35 464 148 572 q 261 679 419 679 q 553 679 639 601 q 726 522 726 401 q 726 257 607 176 q 559 143 515 143 q 455 143 455 222 q 455 226 456 238 z m 450 485 q 405 485 361 433 q 331 398 308 342 q 286 286 286 247 q 286 189 337 189 q 375 189 416 228 q 456 267 464 311 q 467 330 470 339 l 480 379 q 491 423 495 437 q 500 449 500 458 q 500 469 485 477 q 470 485 450 485 z"},".":{"x_min":0,"x_max":243,"ha":243,"o":"m 124 115 q 132 115 142 97 q 149 84 167 72 q 187 58 187 49 q 187 42 168 30 q 150 19 143 5 l 136 -5 q 131 -14 122 -14 q 114 -14 101 4 q 90 21 75 30 q 58 41 58 50 q 58 59 74 68 q 90 77 104 97 q 115 115 124 115 z"},"p":{"x_min":0,"x_max":512,"ha":512,"o":"m 161 337 q 233 410 304 410 q 377 410 427 354 q 476 299 476 217 q 476 122 416 54 q 356 -13 272 -13 q 225 -13 161 16 l 161 -83 q 161 -136 176 -154 q 191 -172 236 -172 q 251 -172 251 -182 q 251 -190 237 -190 l 212 -190 l 166 -189 l 115 -188 l 94 -189 l 75 -190 l 52 -191 l 46 -190 q 42 -188 42 -182 q 42 -174 54 -172 q 77 -167 85 -151 q 94 -135 94 -97 l 93 -79 l 93 287 l 92 307 q 92 335 81 346 q 70 356 41 356 l 33 356 q 28 356 26 357 q 22 359 22 364 q 22 372 35 375 q 116 396 146 421 q 152 426 155 426 q 163 426 163 413 l 163 403 z m 161 285 l 161 119 q 161 71 195 42 q 229 13 286 13 q 348 13 384 55 q 420 97 420 170 q 420 256 378 311 q 336 365 270 365 q 225 365 193 342 q 161 318 161 285 z"},"X":{"x_min":0,"x_max":627,"ha":627,"o":"m 367 335 l 492 146 q 540 74 570 41 q 588 21 624 14 q 641 10 641 1 q 641 -7 627 -7 q 621 -7 608 -5 q 586 -2 535 -2 l 510 -1 l 446 -6 q 434 -8 426 -8 q 414 -8 414 0 q 414 10 431 14 q 458 21 458 44 q 458 59 440 85 l 312 277 q 304 291 300 291 q 296 291 279 265 q 235 199 229 191 l 180 122 q 144 70 143 45 q 141 19 166 16 l 191 13 q 204 11 204 0 q 204 -8 192 -8 q 184 -8 171 -6 q 144 -2 111 -2 q 75 -2 32 -6 q 19 -7 13 -7 q -2 -7 -3 1 q -4 9 9 12 q 42 21 62 37 q 83 54 112 96 q 142 138 163 167 q 225 251 237 269 q 255 296 259 302 q 273 321 272 328 q 272 335 264 348 l 254 364 l 146 523 q 91 605 69 626 q 46 647 7 652 q -13 654 -13 664 q -13 673 5 673 q 41 673 114 668 q 129 667 139 667 q 145 667 193 671 q 202 672 211 672 q 227 672 227 661 q 227 653 211 651 q 184 646 184 625 q 184 610 206 578 l 320 406 q 323 402 325 402 q 328 402 336 414 l 438 557 l 454 579 q 472 603 472 620 q 472 642 450 648 l 433 652 q 420 656 420 665 q 420 672 431 671 q 438 671 450 670 q 471 667 522 667 q 550 667 575 670 q 589 672 598 672 q 611 673 611 665 q 611 655 598 650 l 574 641 q 539 627 496 568 l 368 390 q 354 370 354 362 q 354 355 359 347 z"},"*":{"x_min":0,"x_max":393,"ha":393,"o":"m 194 498 l 153 431 q 141 411 134 411 q 124 411 109 425 q 93 438 94 447 q 94 453 102 460 l 163 514 q 173 523 173 526 q 172 533 156 535 l 82 547 q 53 551 53 566 q 53 579 62 596 q 71 613 79 614 q 83 614 96 606 l 169 561 l 177 557 q 184 558 182 568 l 166 652 q 164 663 164 666 q 163 682 194 682 q 229 682 228 666 q 228 663 226 652 l 210 568 q 208 558 214 557 l 223 561 l 296 606 q 309 614 313 614 q 321 613 330 596 q 339 579 339 565 q 339 551 311 547 l 236 535 q 221 533 220 526 q 219 523 229 514 l 291 460 q 298 453 298 446 q 298 437 282 424 q 267 410 258 411 q 249 411 239 431 l 206 498 l 200 505 z"},"Y":{"x_min":0,"x_max":585,"ha":585,"o":"m 340 100 q 340 43 350 31 q 359 18 403 14 q 418 12 418 3 q 418 -8 401 -8 q 396 -8 375 -6 q 363 -4 340 -3 l 301 -1 l 263 -2 q 227 -2 215 -3 q 201 -5 196 -5 q 185 -5 185 3 q 185 13 201 15 q 242 21 253 37 q 264 53 264 105 l 265 126 l 265 271 q 265 303 260 317 q 256 332 239 359 l 103 575 l 86 602 q 72 625 46 639 q 20 654 -5 654 q -20 654 -20 663 q -20 673 -4 673 q 8 673 21 672 q 52 668 87 668 q 159 668 179 670 q 200 672 205 672 q 219 672 219 663 q 219 655 208 652 q 175 642 175 619 q 175 606 196 572 l 209 548 l 312 387 l 318 377 q 322 371 327 371 q 332 371 337 377 l 342 385 l 413 492 l 437 530 q 471 584 471 603 q 471 636 409 650 q 397 653 397 662 q 398 670 409 670 q 416 670 435 667 q 449 665 503 665 q 553 665 566 666 q 585 668 592 668 q 605 669 605 660 q 605 652 593 648 q 550 634 521 593 l 489 546 l 371 369 l 359 353 q 340 326 340 304 z"},"c":{"x_min":0,"x_max":399,"ha":399,"o":"m 250 410 q 292 410 324 399 q 357 388 357 375 l 357 360 l 360 323 q 360 297 349 296 q 343 295 335 311 q 319 339 282 360 q 246 380 211 380 q 163 380 133 337 q 103 293 103 224 q 103 143 149 86 q 196 30 263 30 q 317 30 370 74 q 376 80 381 80 q 389 81 389 73 q 389 62 365 42 q 305 -13 220 -13 q 142 -13 89 44 q 37 101 37 185 q 37 278 99 344 q 161 410 250 410 z"},"!":{"x_min":0,"x_max":246,"ha":246,"o":"m 141 679 q 167 679 167 656 q 167 650 166 642 q 164 619 160 561 l 151 435 q 149 410 144 343 q 140 294 139 272 q 136 220 125 220 q 114 220 112 262 q 111 288 106 354 q 97 462 92 551 q 89 611 86 635 q 85 643 85 648 q 85 679 141 679 z m 126 115 q 133 115 144 96 q 151 84 169 72 q 188 58 188 49 q 188 42 170 30 q 152 19 145 5 l 138 -5 q 133 -14 124 -14 q 116 -14 103 4 q 92 21 77 30 q 60 41 60 50 q 60 59 76 68 q 92 77 105 97 q 117 115 126 115 z"},"/":{"x_min":0,"x_max":479,"ha":479,"o":"m 459 680 l 11 -102 q 1 -119 -7 -119 q -35 -119 -35 -111 q -34 -106 -31 -100 l -8 -61 l 434 710 q 441 722 448 721 q 477 719 477 712 q 477 709 470 696 z"},"[":{"x_min":0,"x_max":254,"ha":254,"o":"m 67 5 l 67 623 l 68 664 q 68 724 95 721 l 118 718 l 142 719 l 179 720 l 199 721 l 204 721 q 209 719 209 713 q 209 704 186 701 q 131 696 131 633 l 131 39 l 132 19 q 132 -35 135 -51 q 139 -66 155 -80 q 172 -95 199 -97 l 212 -98 q 228 -99 228 -108 q 228 -120 209 -119 l 180 -118 l 140 -119 l 104 -121 l 88 -121 l 72 -117 q 69 -113 69 -95 l 68 -73 q 67 -68 67 -57 l 67 -15 z"},"6":{"x_min":0,"x_max":500,"ha":500,"o":"m 131 357 q 207 425 276 425 q 354 425 406 365 q 459 305 459 217 q 459 121 403 54 q 347 -13 266 -13 q 168 -13 106 63 q 43 140 43 258 q 43 347 87 438 q 131 529 207 597 q 248 634 307 663 q 366 691 400 691 q 415 691 416 681 q 416 672 401 667 q 292 635 223 551 q 150 462 131 357 z m 242 383 q 187 383 155 345 q 123 306 123 241 q 123 149 169 82 q 216 15 278 15 q 333 15 366 56 q 399 98 399 165 q 399 256 353 320 q 307 383 242 383 z"},"r":{"x_min":0,"x_max":347,"ha":347,"o":"m 170 321 q 227 410 274 410 q 290 410 314 392 q 339 374 340 362 q 340 355 324 335 q 308 315 301 315 q 298 315 280 327 q 259 341 240 341 q 210 341 190 320 q 170 299 170 267 l 170 93 q 170 52 181 34 q 192 17 219 15 l 245 13 q 260 12 260 3 q 260 -7 247 -7 q 243 -7 224 -4 q 214 -3 196 -3 l 161 -3 l 140 -3 q 102 -3 85 -5 q 73 -7 68 -8 q 55 -8 55 2 q 55 10 70 13 q 91 18 97 31 q 103 44 103 87 l 103 297 q 103 353 49 353 l 33 353 q 21 353 21 362 q 21 368 29 371 q 33 372 40 373 q 85 377 148 416 q 154 419 159 419 q 170 420 170 403 l 170 394 z"},"2":{"x_min":0,"x_max":500,"ha":500,"o":"m 380 -1 l 345 0 l 292 0 l 219 0 l 126 0 q 89 -2 73 -2 q 61 -2 61 6 q 61 13 92 51 q 190 169 255 300 q 319 431 319 512 q 319 565 290 596 q 262 626 212 626 q 146 626 92 574 l 81 563 q 75 558 69 558 q 60 557 61 567 q 62 585 98 621 q 159 680 244 680 q 310 680 352 641 q 394 602 394 542 q 394 483 351 396 q 303 296 239 203 l 182 119 l 170 103 q 161 90 161 83 q 161 64 279 64 q 343 64 377 76 q 412 89 431 118 q 440 132 448 132 q 457 133 456 125 q 456 121 452 115 q 446 106 434 84 q 410 43 380 -1 z"},"{":{"x_min":0,"x_max":257,"ha":257,"o":"m 142 176 l 142 37 q 142 -32 161 -62 q 180 -92 228 -100 q 243 -102 243 -110 q 243 -121 212 -121 l 181 -121 q 130 -121 104 -85 q 78 -48 78 22 l 78 163 q 78 213 67 239 q 56 266 25 289 q 17 295 17 300 q 17 305 25 311 q 56 334 67 361 q 78 387 78 437 l 78 578 q 78 648 104 685 q 130 721 181 721 l 212 721 q 243 721 243 710 q 242 701 225 698 q 177 689 159 661 q 142 632 142 562 l 142 424 q 142 349 103 317 l 93 309 q 86 303 86 300 q 86 297 93 291 l 103 283 q 142 252 142 176 z"},"9":{"x_min":0,"x_max":500,"ha":500,"o":"m 365 301 q 351 291 344 286 q 283 239 222 239 q 146 239 93 299 q 41 359 41 444 q 41 545 98 612 q 155 680 241 680 q 333 680 394 604 q 456 527 456 414 q 456 327 418 241 q 379 155 311 88 q 257 36 198 5 q 139 -25 92 -25 q 76 -25 76 -14 q 76 -5 93 -1 l 116 5 q 159 16 208 53 q 257 90 292 139 q 342 207 365 301 z m 220 650 q 168 650 135 607 q 102 565 102 499 q 102 407 148 344 q 193 280 258 280 q 313 280 345 320 q 377 359 377 427 q 377 520 331 585 q 285 650 220 650 z"}," ":{"x_min":0,"x_max":250,"ha":250,"o":""},"I":{"x_min":0,"x_max":328,"ha":328,"o":"m 202 524 l 202 159 q 202 90 210 68 q 220 43 234 33 q 249 23 279 19 q 304 15 304 6 q 304 -5 289 -5 q 281 -5 270 -4 q 255 -2 218 -2 l 147 -1 l 90 -4 q 76 -6 66 -6 q 53 -6 53 4 q 53 13 68 16 q 105 22 116 41 q 127 61 127 123 l 127 541 q 127 601 113 622 q 99 643 54 650 q 39 653 38 662 q 38 673 52 673 q 56 673 61 672 q 97 668 156 668 q 192 668 218 670 l 250 672 q 260 673 263 673 q 276 673 276 664 q 276 655 263 650 l 238 641 q 202 627 202 524 z"},"H":{"x_min":0,"x_max":766,"ha":766,"o":"m 243 365 l 531 365 q 553 365 559 369 q 564 373 564 386 l 564 553 q 564 603 552 624 q 539 645 504 653 q 489 656 490 665 q 490 673 502 673 q 512 673 535 670 q 567 667 604 667 q 656 667 677 670 q 690 672 695 672 q 707 672 707 663 q 707 655 695 653 l 675 648 q 660 646 649 627 q 639 608 639 583 l 639 111 q 639 59 654 39 q 668 19 710 15 q 725 13 726 5 q 727 -7 712 -7 q 702 -7 687 -4 q 675 -2 638 -2 l 602 -2 l 565 -3 q 556 -3 542 -4 q 511 -7 508 -7 q 496 -7 496 3 q 497 12 513 14 q 564 23 564 98 l 564 117 l 564 296 q 564 319 560 323 q 556 327 531 327 l 243 327 q 215 327 208 321 q 202 315 202 292 l 202 113 q 202 62 218 42 q 234 21 278 17 q 296 15 296 4 q 297 -6 282 -6 q 276 -6 258 -4 q 245 -1 200 -1 l 159 -1 l 126 -2 q 114 -2 96 -3 q 70 -5 65 -5 q 53 -5 53 4 q 53 13 65 16 l 90 21 q 111 26 119 54 q 127 81 127 149 l 127 568 q 127 611 111 630 q 95 649 53 655 q 39 657 39 666 q 39 676 52 676 q 61 675 81 673 q 119 668 170 668 q 205 668 235 672 q 249 674 256 674 q 270 674 270 664 q 270 656 257 653 q 224 645 213 629 q 202 614 202 578 l 202 403 q 202 375 207 370 q 213 365 243 365 z"},"4":{"x_min":0,"x_max":500,"ha":500,"o":"m 367 208 l 367 149 l 367 91 l 366 42 l 368 -29 q 368 -43 364 -49 q 361 -55 340 -59 q 331 -60 320 -64 q 311 -68 305 -68 q 294 -68 294 -55 l 295 -41 l 295 208 l 273 208 l 229 208 l 73 208 q 56 208 47 208 q 29 210 29 224 q 29 250 185 468 q 340 686 359 687 q 367 688 367 675 l 367 656 l 367 639 l 367 275 l 387 274 q 418 274 438 291 l 450 301 q 456 306 459 306 q 470 306 470 292 l 460 257 l 453 226 q 449 212 444 210 q 438 208 410 208 z m 295 275 l 295 552 q 234 477 190 409 l 125 309 q 120 302 102 275 z"},"~":{"x_min":0,"x_max":667,"ha":667,"o":"m 531 733 l 544 725 q 519 682 482 656 q 445 630 409 630 q 387 630 345 644 q 260 673 229 673 q 202 673 183 661 q 165 649 136 614 l 122 623 q 182 718 259 718 q 288 718 352 696 q 406 678 430 678 q 486 678 531 733 z"},"D":{"x_min":0,"x_max":742,"ha":742,"o":"m 127 550 q 127 599 110 622 q 94 645 55 649 q 39 650 39 659 q 39 669 52 669 l 90 667 q 96 667 125 667 q 174 667 201 669 l 247 673 q 276 676 311 676 q 511 676 611 575 q 703 483 703 340 q 703 248 663 171 q 623 94 551 49 q 461 -7 355 -7 q 342 -7 310 -4 q 245 0 196 0 q 144 0 105 -5 q 88 -8 78 -8 q 61 -9 61 3 q 61 11 74 14 q 107 21 117 39 q 127 56 127 110 z m 202 589 l 202 86 q 202 56 231 45 q 257 35 298 28 q 338 21 366 21 q 449 21 516 62 q 629 133 629 302 q 629 394 594 471 q 559 548 497 592 q 421 646 312 646 q 235 646 214 629 q 202 620 202 589 z"},"^":{"x_min":0,"x_max":500,"ha":500,"o":"m 525 287 l 489 287 l 283 603 l 71 287 l -23 287 l 252 700 l 259 700 z"},"0":{"x_min":0,"x_max":500,"ha":500,"o":"m 261 680 q 351 680 409 585 q 467 490 467 343 q 467 189 408 88 q 348 -13 257 -13 q 155 -13 94 73 q 33 159 33 302 q 33 395 62 482 q 90 569 138 621 q 192 680 261 680 z m 225 625 q 165 625 128 558 q 92 490 92 378 q 92 230 147 127 q 202 24 280 24 q 345 24 382 95 q 419 167 419 293 q 419 438 364 532 q 310 625 225 625 z"},"F":{"x_min":0,"x_max":518,"ha":518,"o":"m 202 593 l 202 399 l 203 390 l 203 377 q 205 364 230 364 l 272 363 l 289 364 l 346 365 q 391 365 412 378 q 432 392 438 424 q 439 436 447 436 q 457 436 456 421 l 453 373 q 452 363 452 343 q 452 286 454 270 q 455 261 455 256 q 455 245 446 245 q 437 245 432 269 q 426 294 419 304 q 412 313 396 317 q 363 325 300 325 q 241 325 224 323 q 207 320 205 312 q 202 302 202 282 l 202 101 q 202 62 223 40 q 243 17 278 17 q 294 17 295 7 q 296 -4 280 -4 q 270 -4 250 -2 q 234 0 203 0 l 169 0 l 131 0 q 119 0 98 -2 q 81 -3 73 -4 q 59 -4 59 5 q 59 13 74 16 q 105 23 117 42 q 128 62 128 110 l 128 550 q 128 596 113 621 q 103 638 91 644 q 80 649 51 652 q 39 653 39 661 q 38 673 58 673 q 64 673 88 671 q 132 667 235 667 q 328 667 354 668 l 422 671 q 466 673 479 676 q 488 678 495 678 q 505 678 505 667 q 505 661 503 650 q 495 619 495 565 q 495 543 482 543 q 475 543 474 555 q 472 570 468 586 q 462 611 452 618 q 443 625 410 628 l 353 634 q 325 636 283 636 q 229 636 215 629 q 202 622 202 593 z"},"`":{"x_min":0,"x_max":500,"ha":500,"o":"m 234 485 l 172 552 l 165 561 q 158 568 158 574 q 158 592 177 592 q 213 592 221 591 q 228 589 232 579 l 243 554 q 246 546 260 516 q 275 485 275 477 q 276 467 267 467 q 259 467 234 485 z"},"k":{"x_min":0,"x_max":482,"ha":482,"o":"m 161 205 l 306 331 q 324 346 324 356 q 324 374 298 379 q 280 383 280 390 q 280 400 292 399 q 299 399 317 397 q 331 396 362 396 q 406 396 424 397 q 442 398 450 398 q 459 398 459 391 q 460 382 439 377 q 401 369 381 354 l 345 327 l 328 314 l 240 236 l 262 208 q 363 77 397 48 q 430 20 484 16 q 497 16 497 8 q 497 -2 480 -2 l 441 -1 l 418 -1 q 388 -1 380 -2 q 374 -2 370 -2 q 358 -2 345 11 l 275 87 q 246 118 189 192 l 161 167 l 161 91 q 161 50 176 33 q 191 16 229 16 q 242 16 242 8 q 242 -3 229 -3 q 226 -3 197 1 q 190 2 171 2 q 107 2 94 1 q 57 -2 51 -2 q 42 -2 42 5 q 42 13 48 15 l 65 21 q 92 30 92 61 l 93 86 l 94 103 l 94 587 q 94 656 45 656 l 28 657 q 17 657 17 665 q 17 672 30 675 l 52 681 q 79 688 92 693 l 127 707 q 140 712 145 716 q 151 720 155 720 q 162 720 162 707 l 161 687 l 161 667 z"},"u":{"x_min":0,"x_max":526,"ha":526,"o":"m 366 60 q 310 -13 229 -13 q 160 -13 122 29 q 83 71 83 147 l 84 179 l 84 341 q 84 366 74 375 q 63 385 36 387 q 23 388 24 397 q 24 406 54 407 l 91 409 q 104 410 128 416 q 135 417 139 417 q 152 417 152 395 l 152 387 l 150 169 l 150 153 l 158 94 q 168 63 196 42 q 224 22 256 22 q 299 22 333 47 q 366 72 366 104 l 366 338 q 366 366 357 376 q 347 386 321 386 q 306 386 306 396 q 306 407 323 407 l 339 408 l 374 410 q 390 411 412 417 q 418 419 423 420 q 434 420 434 402 l 434 85 q 434 47 442 35 q 450 23 475 23 l 482 23 l 489 24 q 500 24 500 17 q 501 6 472 5 l 441 3 q 410 1 400 -1 q 389 -4 382 -4 q 367 -4 367 42 z"},"]":{"x_min":0,"x_max":254,"ha":254,"o":"m 188 5 l 187 -15 l 187 -30 l 187 -60 l 186 -95 q 186 -112 182 -116 q 179 -121 166 -121 l 150 -121 l 114 -119 l 75 -118 l 45 -119 l 30 -115 q 26 -112 26 -108 q 26 -99 42 -98 l 56 -97 q 93 -94 112 -66 q 123 -50 123 -1 l 123 633 q 123 696 69 701 q 45 704 45 713 q 45 721 55 721 l 75 720 l 112 719 l 136 718 l 161 721 l 184 698 q 187 688 187 664 l 188 623 z"},"U":{"x_min":0,"x_max":775,"ha":775,"o":"m 637 281 l 637 534 q 637 595 619 622 q 602 650 560 654 q 545 655 545 665 q 545 675 555 675 q 566 674 586 671 q 605 668 631 668 q 686 668 698 669 q 715 671 720 671 q 729 671 729 662 q 729 655 719 650 q 689 638 680 616 q 671 594 671 533 l 671 292 q 671 158 618 86 q 584 41 522 14 q 459 -13 388 -13 q 305 -13 238 19 q 172 51 141 106 q 106 170 106 272 l 106 520 l 105 548 q 105 600 91 620 q 77 640 33 646 q 20 648 20 656 q 20 668 39 668 q 51 668 72 667 q 95 666 105 666 l 143 666 l 180 666 q 186 666 207 668 q 225 669 232 669 q 243 669 243 662 q 243 652 228 649 q 199 643 190 625 q 180 606 180 559 l 181 527 l 181 281 q 181 155 220 101 q 275 25 405 25 q 521 25 579 89 q 637 152 637 281 z"},"o":{"x_min":0,"x_max":504,"ha":504,"o":"m 254 410 q 342 410 405 348 q 468 286 468 201 q 468 108 406 47 q 344 -13 249 -13 q 156 -13 96 46 q 37 104 37 196 q 37 285 100 347 q 164 410 254 410 z m 241 390 q 180 390 143 345 q 105 300 105 227 q 105 133 152 71 q 199 8 268 8 q 329 8 364 52 q 398 97 398 173 q 398 269 354 330 q 311 390 241 390 z"},"N":{"x_min":0,"x_max":740,"ha":740,"o":"m 633 479 l 633 70 q 633 15 631 3 q 628 -9 617 -8 q 610 -8 606 -4 l 595 9 l 184 479 l 179 485 q 176 488 172 488 q 163 488 163 466 l 163 135 l 162 114 l 164 80 q 167 47 180 35 q 193 23 232 17 q 248 15 248 4 q 248 -5 238 -5 q 231 -5 223 -4 q 218 -3 181 -1 l 131 1 l 107 0 q 88 0 71 -2 q 59 -4 53 -4 q 41 -4 40 5 q 39 12 53 17 q 94 31 109 55 q 123 79 123 131 l 123 463 q 123 548 96 596 q 69 645 19 652 q 5 654 5 663 q 5 672 16 672 q 19 672 24 672 l 44 671 l 77 670 l 84 671 q 96 671 103 671 q 115 671 127 657 l 576 148 q 587 136 590 137 q 595 137 595 146 l 595 388 l 596 454 l 590 566 q 585 607 566 625 q 546 642 496 650 q 482 653 482 663 q 482 672 496 672 q 502 672 517 670 q 550 667 607 667 q 637 667 655 669 q 671 672 679 672 q 692 672 693 662 q 693 656 683 653 q 653 646 644 628 q 634 611 634 564 l 634 512 z"},"+":{"x_min":0,"x_max":500,"ha":500,"o":"m 274 308 l 275 265 l 276 229 l 277 179 l 278 165 q 278 149 268 146 l 250 141 l 233 133 l 228 135 q 223 140 223 154 l 224 177 l 225 234 l 225 267 l 225 309 l 183 309 l 129 310 q 111 310 92 308 q 76 307 70 307 q 51 307 51 316 q 51 321 57 337 l 62 352 q 65 362 81 362 l 95 361 l 146 360 l 180 359 l 224 358 l 224 382 q 224 411 221 476 q 221 487 221 492 q 221 505 233 519 q 246 533 258 533 q 272 533 272 516 l 273 451 l 273 413 l 273 357 l 329 357 l 360 357 q 421 357 435 356 q 449 354 449 347 q 449 329 439 317 q 429 305 412 305 l 392 306 l 313 308 z"},"G":{"x_min":0,"x_max":754,"ha":754,"o":"m 593 164 l 593 273 q 593 303 580 314 q 567 325 528 328 q 509 330 508 340 q 508 350 525 350 l 544 349 l 581 349 q 656 349 668 350 q 702 352 708 352 q 719 352 719 343 q 719 334 704 331 q 667 322 667 277 l 667 261 l 667 105 l 668 89 l 666 82 q 663 80 651 78 q 638 76 611 61 l 579 42 q 483 -14 374 -14 q 228 -14 134 80 q 40 174 40 321 q 40 475 139 577 q 239 680 388 680 q 446 680 510 663 q 575 646 614 622 q 620 618 622 618 q 625 618 631 622 l 643 630 q 646 633 650 633 q 659 633 659 610 q 659 600 662 577 l 667 531 q 669 513 673 494 q 676 485 676 480 q 676 468 666 468 q 660 467 655 476 q 617 554 538 603 q 459 652 371 652 q 260 652 190 568 q 121 484 121 351 q 121 208 201 113 q 281 17 400 17 q 513 17 577 97 q 593 116 593 164 z"},"q":{"x_min":0,"x_max":518,"ha":518,"o":"m 371 64 q 295 -13 217 -13 q 140 -13 89 42 q 37 98 37 181 q 37 238 61 289 q 84 340 124 372 q 187 420 261 420 q 319 420 375 382 q 383 376 387 376 q 400 376 411 406 q 422 435 429 436 q 438 437 438 425 l 438 -98 q 438 -133 445 -147 q 453 -161 473 -165 l 491 -169 q 504 -172 504 -181 q 504 -189 492 -189 q 482 -189 473 -189 q 447 -188 407 -188 q 368 -188 347 -189 q 333 -191 326 -191 q 312 -191 313 -181 q 313 -173 326 -172 q 353 -169 362 -156 q 371 -142 371 -103 z m 371 135 l 371 298 q 371 334 349 354 q 299 397 242 397 q 179 397 138 348 q 98 299 98 222 q 98 142 143 86 q 188 31 252 31 q 321 31 356 75 q 371 93 371 135 z"},"d":{"x_min":0,"x_max":521,"ha":521,"o":"m 361 60 q 312 17 281 2 q 250 -13 210 -13 q 137 -13 87 44 q 37 102 37 187 q 37 281 96 345 q 156 410 243 410 q 302 410 361 375 l 361 568 q 361 661 312 658 l 294 657 q 291 657 288 658 q 283 660 283 665 q 282 675 297 677 q 347 683 411 722 q 417 725 420 725 q 428 725 428 714 l 428 706 l 428 85 q 428 30 462 30 l 491 31 l 495 30 q 500 28 500 22 q 500 12 483 10 q 463 8 458 7 l 430 2 q 398 -2 387 -8 q 378 -13 373 -13 q 361 -14 361 11 z m 361 119 l 361 280 q 361 324 340 344 q 292 391 225 391 q 166 391 130 346 q 93 301 93 228 q 93 147 141 89 q 188 30 253 30 q 301 30 331 54 q 361 79 361 119 z"},"1":{"x_min":0,"x_max":500,"ha":500,"o":"m 303 587 l 303 110 q 303 58 320 40 q 337 21 386 21 l 394 21 q 402 21 407 20 q 413 17 413 10 q 413 0 394 0 l 369 1 l 261 2 q 214 2 190 0 q 166 -1 151 -1 q 137 -1 137 7 q 137 18 152 19 l 180 21 q 231 24 231 82 l 231 538 q 231 569 223 580 q 214 591 189 591 q 164 591 145 581 q 136 576 132 576 q 124 576 124 583 q 125 602 179 618 q 238 636 288 678 q 298 686 302 686 q 311 686 311 675 q 311 668 308 654 q 303 635 303 587 z"},"5":{"x_min":0,"x_max":500,"ha":500,"o":"m 141 434 q 189 441 218 441 q 312 441 370 387 q 427 334 427 245 q 427 155 363 79 q 286 -13 165 -13 q 123 -13 76 1 q 28 15 28 27 q 28 37 38 37 q 42 38 49 34 q 94 13 149 13 q 236 13 293 72 q 350 131 350 222 q 350 294 306 335 q 261 376 183 376 q 156 376 138 372 q 125 368 118 368 q 111 368 104 374 q 98 380 98 388 l 102 403 l 106 427 l 149 625 l 153 646 q 158 668 180 668 l 354 668 q 392 668 408 685 l 418 695 q 424 700 430 701 q 438 701 438 691 q 438 685 432 672 l 407 621 q 394 594 355 594 l 210 594 l 197 595 l 178 586 q 170 578 164 547 z"}}}
